<?xml version="1.0" encoding="UTF-8"?>
<svg xmlns="http://www.w3.org/2000/svg" id="a" width="65px" height="65px" viewBox="0 0 65 65"><circle cx="40.5" cy="25.5" r="21.5" fill="#d2ddff"/><path d="m7,39.79c0,9.11,11.19,16.5,25,16.5s25-7.39,25-16.5v-9.79H7v9.79Z" fill="#77a052"/><ellipse cx="32" cy="30" rx="25" ry="17" fill="#a9ba5a"/><circle cx="1" cy="18" r="1" fill="#4c241d"/><path d="m9,14c1.65,0,3-1.35,3-3s-1.35-3-3-3-3,1.35-3,3,1.35,3,3,3Zm0-4c.55,0,1,.45,1,1s-.45,1-1,1-1-.45-1-1,.45-1,1-1Z" fill="#4c241d"/><circle cx="63" cy="18" r="1" fill="#4c241d"/><path d="m55.71,7.29c-.39-.39-1.02-.39-1.41,0l-.79.79-.79-.79c-.39-.39-1.02-.39-1.41,0s-.39,1.02,0,1.41l.79.79-.79.79c-.39.39-.39,1.02,0,1.41.2.2.45.29.71.29s.51-.1.71-.29l.79-.79.79.79c.2.2.45.29.71.29s.51-.1.71-.29c.39-.39.39-1.02,0-1.41l-.79-.79.79-.79c.39-.39.39-1.02,0-1.41Z" fill="#4c241d"/><path d="m32,12c-14.34,0-26,8.08-26,18v9.79c0,9.65,11.66,17.5,26,17.5s26-7.85,26-17.5v-9.79c0-9.92-11.66-18-26-18Zm24,27.79c0,8.55-10.77,15.5-24,15.5s-24-6.95-24-15.5v-2.87c3.92,6.5,13.2,11.08,24,11.08s20.08-4.58,24-11.08v2.87Zm-24,6.21c-13.23,0-24-7.18-24-16s10.77-16,24-16,24,7.18,24,16-10.77,16-24,16Z" fill="#4c241d"/><path d="m10.74,28.4c-.52.5-1.01,1.01-1.45,1.54-.35.43-.29,1.06.13,1.41.19.16.41.23.64.23.29,0,.57-.12.77-.36.39-.47.82-.93,1.29-1.37.4-.38.42-1.01.04-1.41-.38-.4-1.02-.41-1.41-.04Z" fill="#4c241d"/><path d="m50.02,25.86c-1.14-.74-2.39-1.41-3.71-1.99-.5-.22-1.09,0-1.32.51s0,1.1.51,1.32c1.23.54,2.38,1.16,3.44,1.84.17.11.36.16.54.16.33,0,.65-.16.84-.46.3-.46.17-1.08-.3-1.38Z" fill="#4c241d"/><path d="m42.37,22.44c-1.31-.38-2.68-.69-4.07-.93-.54-.1-1.06.28-1.15.82-.09.54.28,1.06.82,1.15,1.32.22,2.61.51,3.84.87.09.03.19.04.28.04.43,0,.83-.28.96-.72.16-.53-.15-1.08-.68-1.24Z" fill="#4c241d"/><path d="m17.81,23.82c-1.32.58-2.58,1.24-3.72,1.97-.46.3-.6.92-.3,1.38.19.3.51.46.84.46.18,0,.37-.05.54-.16,1.06-.67,2.22-1.29,3.45-1.83.51-.22.74-.81.52-1.32-.22-.5-.81-.74-1.32-.52Z" fill="#4c241d"/><path d="m25.83,21.49c-1.39.23-2.76.53-4.08.91-.53.15-.84.71-.69,1.24.13.44.53.72.96.72.09,0,.18-.01.28-.04,1.24-.35,2.53-.64,3.85-.86.54-.09.92-.6.83-1.15-.09-.54-.6-.91-1.15-.83Z" fill="#4c241d"/><path d="m34.15,21.06c-1.38-.07-2.79-.08-4.17,0-.55.03-.98.5-.95,1.05s.51.97,1.05.95c1.31-.07,2.65-.06,3.96,0,.02,0,.04,0,.05,0,.53,0,.97-.41,1-.95.03-.55-.39-1.02-.95-1.05Z" fill="#4c241d"/><path d="m51.99,29.95c.46.45.89.91,1.27,1.38.2.24.49.37.78.37.22,0,.44-.07.63-.22.43-.35.49-.98.15-1.41-.43-.53-.92-1.06-1.43-1.56-.4-.38-1.03-.37-1.41.02-.38.4-.37,1.03.02,1.41Z" fill="#4c241d"/></svg>
