<?xml version="1.0" encoding="UTF-8"?>
<svg xmlns="http://www.w3.org/2000/svg" id="a" width="65px" height="65px" viewBox="0 0 65 65"><circle cx="30" cy="63" r="1"/><circle cx="59" cy="9" r="1"/><path d="m55.71.29c-.39-.39-1.02-.39-1.41,0l-.79.79-.79-.79c-.39-.39-1.02-.39-1.41,0s-.39,1.02,0,1.41l.79.79-.79.79c-.39.39-.39,1.02,0,1.41.2.2.45.29.71.29s.51-.1.71-.29l.79-.79.79.79c.2.2.45.29.71.29s.51-.1.71-.29c.39-.39.39-1.02,0-1.41l-.79-.79.79-.79c.39-.39.39-1.02,0-1.41Z"/><path d="m50.55,11.17l-9-6c-.34-.23-.78-.22-1.12,0l-9.43,6.5-9.43-6.5c-.34-.23-.78-.24-1.12,0l-9,6c-.28.19-.45.5-.45.83v42c0,.33.17.65.45.83l9,6c.34.23.78.22,1.12,0l9.43-6.5,9.43,6.5c.17.12.37.18.57.18s.39-.06.55-.17l9-6c.28-.19.45-.5.45-.83V12c0-.33-.17-.65-.45-.83Zm-1.55,12.93l-7.39-5.1,7.39-5.1v10.19ZM20.99,7.21l9.44,6.51c.34.24.79.24,1.13,0l9.44-6.51,7.21,4.81-8.94,6.16c-.27.19-.43.49-.43.82s.16.64.43.82l8.94,6.16-7.21,4.81-9.44-6.51c-.34-.24-.79-.24-1.13,0l-9.44,6.51-7.21-4.81,8.94-6.16c.27-.19.43-.49.43-.82s-.16-.64-.43-.82l-8.94-6.16,7.21-4.81Zm1.01,25.32l8-5.52v25.57l-8,5.52v-25.57Zm10-5.52l8,5.52v25.57l-8-5.52v-25.57Zm-11.61-8.01l-7.39,5.1v-10.19l7.39,5.1Zm-7.39,8.87l7,4.67v25.6l-7-4.67v-25.6Zm29,30.26v-25.6l7-4.67v25.6l-7,4.67Z"/></svg>
